<?xml version="1.0" standalone="no"?>
<!DOCTYPE svg PUBLIC "-//W3C//DTD SVG 20010904//EN"
 "http://www.w3.org/TR/2001/REC-SVG-20010904/DTD/svg10.dtd">
<svg version="1.0" xmlns="http://www.w3.org/2000/svg"
 width="1008.000000pt" height="370.000000pt" viewBox="0 0 1008.000000 370.000000"
 preserveAspectRatio="xMidYMid meet">

<g transform="translate(0.000000,370.000000) scale(0.100000,-0.100000)"
fill="#000000" stroke="none">
<path d="M900 3136 c-41 -8 -97 -24 -125 -36 -27 -13 -61 -28 -75 -34 -69 -30
-160 -112 -198 -178 -69 -121 -104 -286 -105 -498 -1 -141 1 -163 26 -247 39
-131 139 -335 168 -341 8 -1 33 8 55 20 118 66 207 123 211 135 3 7 -3 25 -13
39 -28 39 -30 43 -57 114 -37 95 -47 149 -47 244 0 210 81 395 200 456 88 45
145 53 365 54 181 1 210 3 208 16 -1 8 -11 49 -23 90 -12 41 -26 93 -32 115
-6 22 -14 43 -17 47 -3 3 -109 9 -236 12 -167 3 -251 1 -305 -8z"/>
<path d="M2345 3113 c-45 -4 -159 -29 -190 -42 -105 -44 -138 -61 -190 -99
-149 -111 -222 -231 -270 -444 -21 -90 -16 -299 8 -383 23 -78 58 -179 67
-190 4 -5 29 -50 55 -100 26 -49 51 -94 55 -98 4 -5 25 2 46 15 22 13 48 29
59 36 11 7 29 16 41 21 28 13 131 79 137 88 3 5 -3 24 -14 43 -60 115 -96 213
-101 280 l-3 45 150 -2 c83 -1 165 -2 183 -2 l32 -1 0 -180 c0 -136 3 -182 13
-185 6 -2 80 -6 164 -9 119 -4 154 -2 162 8 17 20 28 780 12 790 -7 4 -81 10
-166 12 -119 4 -155 2 -162 -8 -4 -7 -10 -42 -13 -78 l-5 -65 -160 4 c-88 2
-162 5 -164 7 -3 3 7 29 22 58 45 88 120 145 237 177 29 9 118 13 255 14 195
0 210 1 213 18 3 17 -14 82 -57 212 l-16 50 -90 6 c-95 7 -243 8 -310 2z"/>
<path d="M3102 3086 c-3 -6 -10 -150 -13 -321 -4 -170 -10 -432 -13 -582 -5
-213 -3 -273 6 -280 7 -4 81 -10 164 -11 116 -3 153 -1 161 10 10 11 25 367
27 620 1 52 5 78 13 78 6 0 27 -24 46 -53 20 -30 43 -60 52 -67 9 -7 23 -27
31 -43 22 -42 97 -137 109 -137 10 0 42 37 110 128 21 28 42 52 46 52 3 0 28
27 54 61 30 38 51 57 57 51 6 -6 5 -138 -2 -352 -9 -254 -9 -345 0 -354 7 -7
66 -11 173 -11 l162 0 6 155 c4 85 10 352 14 592 7 371 6 438 -6 442 -8 3 -80
7 -161 9 l-148 5 -112 -117 c-62 -65 -127 -134 -145 -154 -18 -20 -36 -37 -41
-37 -8 0 -58 55 -109 122 -15 20 -50 63 -78 95 -27 32 -57 68 -65 80 -14 19
-26 21 -173 26 -111 3 -159 1 -165 -7z"/>
<path d="M4636 3048 c-5 -14 -14 -334 -24 -847 -5 -204 -3 -319 3 -327 7 -10
49 -14 164 -15 l155 -1 20 27 c12 16 30 42 41 60 11 17 38 58 59 91 22 32 63
95 92 139 28 44 80 124 114 178 35 53 66 97 70 97 4 0 4 -131 2 -291 -3 -214
-2 -293 7 -302 15 -15 299 -23 313 -9 11 11 14 116 27 752 5 243 5 419 0 425
-5 5 -80 11 -167 13 l-159 4 -29 -40 c-16 -22 -41 -60 -56 -84 -34 -53 -41
-65 -98 -151 -25 -38 -53 -81 -62 -95 -10 -15 -28 -46 -40 -69 -12 -24 -25
-43 -29 -43 -4 0 -18 -21 -30 -46 -54 -107 -60 -77 -48 239 8 189 8 282 1 290
-15 18 -321 22 -326 5z"/>
<path d="M6012 3013 c-5 -10 -9 -94 -11 -188 -1 -93 -6 -324 -12 -513 -14
-449 -3 -633 37 -649 11 -4 117 49 194 97 8 5 34 19 56 30 50 23 54 33 44 91
-4 24 -5 148 -1 274 l6 230 170 -4 c94 -2 171 -5 173 -6 2 -1 4 -128 5 -281
l2 -279 164 -3 c91 -1 168 1 172 5 9 9 23 570 24 943 l0 245 -45 2 c-168 5
-283 4 -291 -4 -4 -4 -10 -87 -11 -183 l-3 -175 -175 3 c-96 2 -177 7 -180 12
-3 5 -2 46 2 92 3 46 7 119 7 164 1 114 1 114 -177 114 -125 0 -142 -2 -150
-17z"/>
<path d="M7950 2985 c-8 -2 -49 -9 -90 -15 -91 -15 -244 -71 -285 -105 -16
-13 -35 -24 -41 -25 -17 0 -118 -110 -153 -166 -119 -186 -153 -495 -80 -719
19 -57 73 -173 122 -259 35 -62 49 -66 110 -32 104 58 192 114 200 128 6 9 -1
31 -22 66 -17 29 -31 57 -31 62 0 6 -11 34 -25 62 -26 54 -39 142 -25 169 7
13 32 15 172 12 90 -2 169 -6 177 -9 11 -3 12 -35 6 -174 -5 -122 -4 -174 4
-184 16 -19 329 -23 336 -4 9 26 21 773 13 783 -13 15 -306 19 -324 4 -9 -8
-14 -33 -14 -75 l0 -64 -32 -1 c-56 -2 -303 3 -306 5 -6 7 33 83 61 119 90
112 183 138 501 141 l161 1 -3 27 c-1 15 -14 62 -27 105 -14 43 -25 87 -25 99
0 12 -6 26 -12 32 -12 9 -335 24 -368 17z"/>
<path d="M8656 2962 c-6 -9 -67 -182 -83 -234 -8 -28 29 -35 192 -37 83 -1
153 -5 157 -10 5 -4 4 -135 -2 -291 -14 -398 -13 -603 2 -618 17 -17 319 -17
336 0 9 9 12 87 13 283 1 148 4 349 8 445 l6 175 172 -4 c143 -3 174 -1 178
11 5 13 -35 190 -55 243 -8 20 -17 23 -87 29 -165 12 -830 18 -837 8z"/>
<path d="M1130 2715 c-6 -7 -12 -94 -15 -201 -13 -513 -13 -553 -1 -563 6 -5
80 -11 165 -12 119 -1 155 1 166 12 19 21 32 757 13 764 -7 2 -82 6 -165 8
-114 3 -155 1 -163 -8z"/>
<path d="M318 1674 c-12 -12 -9 -102 3 -110 6 -3 118 -8 248 -10 130 -3 378
-9 551 -14 173 -5 430 -12 570 -15 140 -3 338 -8 440 -10 773 -20 965 -25
1270 -30 190 -3 365 -8 390 -10 25 -2 205 -7 400 -10 195 -3 407 -8 470 -10
110 -4 349 -9 950 -20 151 -3 336 -7 410 -10 74 -3 362 -10 640 -15 278 -5
586 -12 685 -15 99 -2 317 -7 485 -10 168 -3 436 -10 595 -15 270 -9 934 -23
1105 -25 l75 0 3 51 c2 33 -2 54 -10 61 -8 7 -174 13 -448 18 -239 4 -457 8
-485 9 -27 2 -189 6 -360 10 -298 6 -571 13 -890 21 -151 4 -456 11 -900 20
-132 3 -312 8 -400 10 -88 2 -279 7 -425 10 -357 7 -648 15 -805 20 -71 2
-305 7 -520 10 -214 3 -435 8 -490 10 -55 3 -338 10 -630 15 -291 6 -597 12
-680 15 -82 2 -265 7 -405 10 -140 3 -313 8 -385 10 -243 9 -479 15 -835 20
-195 3 -413 8 -485 11 -72 3 -133 2 -137 -2z"/>
<path d="M315 1399 c-11 -16 -13 -64 -19 -339 -3 -146 -9 -290 -12 -322 -6
-48 -4 -57 12 -66 11 -5 163 -13 339 -17 176 -4 370 -9 430 -10 564 -16 663
-17 669 -7 15 25 31 709 16 726 -7 10 -40 14 -113 13 -56 0 -210 3 -342 7
-132 3 -334 9 -450 12 -116 2 -281 7 -367 9 -98 3 -160 0 -163 -6z m602 -261
c18 -18 33 -39 33 -48 0 -9 4 -20 9 -25 5 -6 19 -35 32 -65 24 -59 47 -92 59
-85 4 3 31 52 59 109 28 58 61 112 73 120 12 9 42 16 66 16 62 0 94 -35 111
-120 7 -36 19 -87 27 -114 8 -26 14 -63 14 -80 0 -18 4 -36 9 -41 9 -10 14
-38 12 -62 -1 -14 -88 -18 -107 -5 -11 7 -37 115 -49 203 -13 93 -29 90 -84
-19 -68 -136 -74 -147 -89 -164 -17 -20 -72 -24 -103 -8 -11 6 -33 41 -50 78
-74 162 -91 193 -102 189 -6 -2 -17 -28 -24 -58 -6 -30 -20 -88 -30 -129 l-19
-75 -59 0 -60 0 3 29 c2 15 19 83 39 150 19 66 38 135 42 151 12 46 32 72 65
83 46 16 86 6 123 -30z"/>
<path d="M2253 1358 c-11 -13 -22 -284 -24 -573 -1 -135 1 -151 17 -161 13 -8
119 -14 334 -18 173 -4 369 -9 435 -11 310 -12 693 -16 698 -8 3 5 8 94 11
198 3 105 9 264 12 356 5 136 3 167 -8 177 -10 8 -120 14 -354 20 -186 5 -352
9 -369 9 -76 -2 -646 14 -691 19 -35 3 -54 1 -61 -8z m822 -243 c60 -8 119
-36 163 -78 45 -43 42 -61 -15 -81 -27 -10 -57 -22 -68 -26 -100 -44 -210 -80
-246 -80 -25 0 -39 15 -39 41 0 12 87 52 179 83 36 13 66 27 69 34 6 20 -55
42 -115 42 -75 0 -129 -30 -161 -88 -27 -48 -24 -84 10 -128 46 -58 172 -82
246 -47 19 9 49 36 65 59 27 39 33 42 66 39 20 -1 42 -3 49 -4 27 -2 10 -59
-33 -109 -51 -60 -194 -89 -315 -65 -175 36 -253 158 -187 293 18 37 34 51 86
79 58 31 144 52 181 45 8 -1 37 -5 65 -9z"/>
<path d="M4217 1313 c-2 -4 -8 -127 -11 -273 -4 -146 -9 -306 -11 -356 -4 -66
-1 -95 8 -102 17 -14 221 -22 1056 -38 177 -4 341 -7 362 -8 25 -1 45 4 53 13
11 13 15 93 21 367 4 206 3 354 -2 357 -13 8 -473 25 -843 32 -173 3 -385 8
-472 11 -86 3 -158 2 -161 -3z m1030 -78 c16 -42 -64 -91 -171 -106 -34 -4
-88 -13 -121 -18 -33 -6 -79 -11 -102 -11 -31 0 -45 -5 -52 -18 -6 -10 -11
-71 -13 -135 l-3 -116 40 -41 c47 -48 90 -64 160 -58 90 8 160 75 157 151 -3
55 -38 92 -111 113 -52 15 -61 15 -125 0 -38 -9 -71 -14 -73 -12 -3 2 -6 16
-7 30 -7 59 75 86 194 66 90 -15 156 -46 198 -95 29 -32 32 -42 32 -97 0 -128
-69 -202 -212 -228 -166 -31 -326 41 -356 160 -5 22 -2 262 4 282 2 9 15 23
29 32 28 19 154 46 212 46 23 0 44 4 48 10 3 5 12 7 20 4 24 -9 114 16 128 36
20 29 113 32 124 5z"/>
<path d="M6192 1268 c-17 -21 -20 -79 -24 -433 l-3 -310 220 -6 c376 -11 994
-24 1130 -24 l130 0 8 363 c6 257 5 367 -2 376 -9 10 -64 14 -229 15 -119 1
-264 3 -322 6 -58 3 -247 7 -420 10 -173 3 -351 8 -395 11 -64 5 -83 3 -93 -8z
m881 -261 c15 -9 32 -17 40 -17 17 0 97 -77 97 -94 0 -7 -19 -19 -42 -26 -24
-7 -56 -18 -73 -25 -63 -28 -211 -78 -242 -82 -24 -4 -34 0 -43 16 -6 12 -9
25 -6 30 3 5 52 25 108 46 57 20 111 45 121 55 18 16 17 18 -10 36 -49 33
-163 20 -216 -24 -26 -23 -47 -71 -47 -109 0 -24 10 -44 35 -72 43 -47 108
-67 190 -56 47 5 59 12 94 50 23 25 41 49 41 55 0 6 21 9 50 8 58 -3 62 -13
28 -77 -22 -42 -70 -80 -123 -98 -72 -24 -246 -10 -314 26 -65 35 -121 139
-106 198 17 70 45 108 99 136 79 42 102 47 202 44 66 -2 98 -8 117 -20z"/>
<path d="M8145 1220 c-4 -6 -10 -169 -15 -363 -6 -264 -5 -355 3 -364 8 -8 71
-14 182 -17 720 -24 1261 -30 1270 -16 12 20 30 709 18 721 -15 15 -152 21
-853 34 -168 3 -371 8 -452 11 -100 3 -148 1 -153 -6z m887 -253 c61 -26 68
-52 68 -242 l0 -166 -52 3 -53 3 4 140 c3 141 3 141 -24 173 -25 30 -31 32
-90 32 -92 0 -101 -14 -110 -172 -4 -68 -12 -129 -18 -137 -6 -7 -23 -18 -37
-24 -26 -10 -31 -11 -117 -8 l-53 1 0 40 0 39 58 3 57 3 6 120 c7 147 21 178
89 200 58 19 220 14 272 -8z"/>
</g>
</svg>
